HIERARCHY
ROOT root
{
	OFFSET	0	13.1	24.9
	CHANNELS 6  Xposition Yposition Zposition Xrotation Yrotation Zrotation
	JOINT spine_1
	{
		OFFSET	0	9.99999	0
		CHANNELS 3  Xrotation Yrotation Zrotation
		JOINT spine_2
		{
			OFFSET	0	112	-10
			CHANNELS 3  Xrotation Yrotation Zrotation
			JOINT spine_3
			{
				OFFSET	0	206.5	19.3
				CHANNELS 3  Xrotation Yrotation Zrotation
				JOINT spine_4
				{
					OFFSET	0	110.4	14.6
					CHANNELS 3  Xrotation Yrotation Zrotation
					JOINT neck_1
					{
						OFFSET	0	71.8	-50.3
						CHANNELS 3  Xrotation Yrotation Zrotation
						JOINT neck_2
						{
							OFFSET	0	86.2	-25.8
							CHANNELS 3  Xrotation Yrotation Zrotation
							JOINT head_ee
							{
								OFFSET	0	179.8	-8.7
								CHANNELS 3  Xrotation Yrotation Zrotation
								End Site
								{
									OFFSET	1	0	0
								}
							}
						}
					}
					JOINT left_clavicle
					{
						OFFSET	-43.2	22.4	-70.8
						CHANNELS 3  Xrotation Yrotation Zrotation
						JOINT left_shoulder
						{
							OFFSET	-93.9	-5.79999	48.7
							CHANNELS 3  Xrotation Yrotation Zrotation
							JOINT left_elbow
							{
								OFFSET	-291.4	-30.8	15.2
								CHANNELS 3  Xrotation Yrotation Zrotation
								JOINT left_lowarm_twist
								{
									OFFSET	-110.7	-3.89999	13.6
									CHANNELS 3  Xrotation Yrotation Zrotation
									JOINT left_hand
									{
										OFFSET	-110.7	-3.89999	13.6
										CHANNELS 3  Xrotation Yrotation Zrotation
										JOINT left_ee
										{
											OFFSET	-80.8	-5.10001	12.1
											CHANNELS 3  Xrotation Yrotation Zrotation
											End Site
											{
												OFFSET	1	0	0
											}
										}
									}
								}
							}
						}
					}
					JOINT right_clavicle
					{
						OFFSET	43.2	22.4	-70.8
						CHANNELS 3  Xrotation Yrotation Zrotation
						JOINT right_shoulder
						{
							OFFSET	93.9	-5.79999	48.7
							CHANNELS 3  Xrotation Yrotation Zrotation
							JOINT right_elbow
							{
								OFFSET	291.4	-30.8	15.2
								CHANNELS 3  Xrotation Yrotation Zrotation
								JOINT right_lowarm_twist
								{
									OFFSET	110.7	-3.89999	13.6
									CHANNELS 3  Xrotation Yrotation Zrotation
									JOINT right_hand
									{
										OFFSET	110.7	-3.89999	13.6
										CHANNELS 3  Xrotation Yrotation Zrotation
										JOINT right_ee
										{
											OFFSET	80.8	-5.10001	12.1
											CHANNELS 3  Xrotation Yrotation Zrotation
											End Site
											{
												OFFSET	1	0	0
											}
										}
									}
								}
							}
						}
					}
				}
			}
		}
	}
	JOINT left_hip
	{
		OFFSET	-82.8	-127.5	0.300001
		CHANNELS 3  Xrotation Yrotation Zrotation
		JOINT left_knee
		{
			OFFSET	-28.2	-396.7	2.2
			CHANNELS 3  Xrotation Yrotation Zrotation
			JOINT left_ankle
			{
				OFFSET	-11.7	-411.3	35.4
				CHANNELS 3  Xrotation Yrotation Zrotation
				JOINT left_toes
				{
					OFFSET	0	-60	-88.6
					CHANNELS 3  Xrotation Yrotation Zrotation
					JOINT left_foot_ee
					{
						OFFSET	-22.5	-16.5	-42.2
						CHANNELS 3  Xrotation Yrotation Zrotation
						End Site
						{
							OFFSET	1	0	0
						}
					}
				}
			}
		}
	}
	JOINT right_hip
	{
		OFFSET	82.8	-127.5	0.300001
		CHANNELS 3  Xrotation Yrotation Zrotation
		JOINT right_knee
		{
			OFFSET	28.2	-396.7	2.2
			CHANNELS 3  Xrotation Yrotation Zrotation
			JOINT right_ankle
			{
				OFFSET	11.7	-411.3	35.4
				CHANNELS 3  Xrotation Yrotation Zrotation
				JOINT right_toes
				{
					OFFSET	0	-60	-88.6
					CHANNELS 3  Xrotation Yrotation Zrotation
					JOINT right_foot_ee
					{
						OFFSET	22.5	-16.5	-42.2
						CHANNELS 3  Xrotation Yrotation Zrotation
						End Site
						{
							OFFSET	1	0	0
						}
					}
				}
			}
		}
	}
}
MOTION
Frames: 6
Frame Time: 0.02
3177.02 653.055 -1669.29 -36.9429898357 75.8071847502 34.2514999223 1.90215 0.541092 1.73988 1.90373 0.4293 1.77077 1.91714 0.108555 1.81881 1.91274 0.394395 1.77887 -12.4177 10.3985 1.78112 -12.6169 18.6224 4.75235 -0.0 0.0 -0.0 -0.590368 23.7193 1.9394 -27.9705 -14.2973 68.4279 0.443193 -12.3828 0.048079 -56.05 -4.796 4.96133 1.60081 -4.16559 9.05232 -0.0 0.0 -0.0 12.6357 26.6015 -24.7664 10.1367 10.8728 -64.0285 2.32643 49.0442 -1.06141 84.3454 4.34831 8.8355 2.4548 -19.0137 -23.1177 0.0 0.0 0.0 41.1686 17.8511 -10.0169 1.05733 -0.0449812 -0.156014 -10.4796 -8.50358 1.63656 -9.2543 0.0 0.0 -0.0 0.0 -0.0 -1.72103 -17.0429 8.02365 -19.7113 -0.298962 -2.99519 37.0216 28.4862 5.51601 -5.01171 0.0 0.0 0.0 0.0 0.0 
3103.95995366 651.902 -1656.34861568 -37.5389609554 73.5309234164 33.9774913807 1.78569 0.451948 2.73045 1.7898 0.277354 2.75365 1.8033 -0.220952 2.75875 1.79275 0.217344 2.75904 -2.221 11.8527 -0.949997 -1.95075 22.2066 0.561684 -0.0 0.0 -0.0 0.291808 23.8924 3.15668 -23.9545 -13.4675 64.9806 0.479975 -13.3748 0.0562775 -58.391 -5.08336 5.04828 2.62561 2.29227 18.7338 -0.0 0.0 -0.0 13.466 25.9574 -26.7622 6.83312 7.57577 -63.9216 2.11811 46.371 -0.907272 83.2513 4.21839 8.78232 2.84371 -22.8616 -26.6629 0.0 0.0 0.0 44.6027 18.786 -9.4876 -12.6896 0.311102 1.91859 -5.97233 -7.91063 0.922966 -4.33037 0.0 0.0 -0.0 0.0 -0.0 -3.65452 -15.9241 10.8188 -14.373 -0.32022 -2.1767 36.0725 26.5463 5.29991 -1.05697 0.0 0.0 0.0 0.0 0.0 
3104.00180635 651.902 -1656.11452293 -37.9208612377 73.6761616994 34.3755809682 1.78569 0.451948 2.73045 1.7898 0.277354 2.75365 1.8033 -0.220952 2.75875 1.79275 0.217344 2.75904 -2.221 11.8527 -0.949997 -1.95075 22.2066 0.561684 -0.0 0.0 -0.0 0.291808 23.8924 3.15668 -23.9545 -13.4675 64.9806 0.479975 -13.3748 0.0562775 -58.391 -5.08336 5.04828 2.62561 2.29227 18.7338 -0.0 0.0 -0.0 13.466 25.9574 -26.7622 6.83312 7.57577 -63.9216 2.11811 46.371 -0.907272 83.2513 4.21839 8.78232 2.84371 -22.8616 -26.6629 0.0 0.0 0.0 44.6027 18.786 -9.4876 -12.6896 0.311102 1.91859 -5.97233 -7.91063 0.922966 -4.33037 0.0 0.0 -0.0 0.0 -0.0 -3.65452 -15.9241 10.8188 -14.373 -0.32022 -2.1767 36.0725 26.5463 5.29991 -1.05697 0.0 0.0 0.0 0.0 0.0 
3104.04198646 651.902 -1655.8937565 -38.2875835865 73.8125131932 34.7575742023 1.78569 0.451948 2.73045 1.7898 0.277354 2.75365 1.8033 -0.220952 2.75875 1.79275 0.217344 2.75904 -2.221 11.8527 -0.949997 -1.95075 22.2066 0.561684 -0.0 0.0 -0.0 0.291808 23.8924 3.15668 -23.9545 -13.4675 64.9806 0.479975 -13.3748 0.0562775 -58.391 -5.08336 5.04828 2.62561 2.29227 18.7338 -0.0 0.0 -0.0 13.466 25.9574 -26.7622 6.83312 7.57577 -63.9216 2.11811 46.371 -0.907272 83.2513 4.21839 8.78232 2.84371 -22.8616 -26.6629 0.0 0.0 0.0 44.6027 18.786 -9.4876 -12.6896 0.311102 1.91859 -5.97233 -7.91063 0.922966 -4.33037 0.0 0.0 -0.0 0.0 -0.0 -3.65452 -15.9241 10.8188 -14.373 -0.32022 -2.1767 36.0725 26.5463 5.29991 -1.05697 0.0 0.0 0.0 0.0 0.0 
3026.52235421 666.014 -1640.57459278 -40.7334242406 74.9883795653 37.4553008909 1.54411 0.150296 2.83556 1.54858 -0.0303684 2.83938 1.54729 -0.551895 2.78543 1.53648 -0.105246 2.83759 -2.4437 11.9408 -0.54991 -2.19464 22.0815 1.03467 -0.0 0.0 -0.0 -1.19663 23.0307 1.01521 -15.6111 -18.1141 66.8103 0.747808 -20.3267 0.13406 -54.5744 -4.61676 4.9005 3.30169 6.87646 25.2558 -0.0 0.0 -0.0 12.5462 18.3205 -25.301 -0.453654 5.17339 -66.145 1.74497 40.8368 -0.649631 83.0843 4.19864 8.77398 2.45909 -26.5199 -24.9852 0.0 0.0 0.0 41.5621 19.087 -7.6295 -21.537 0.274208 3.27422 0.365003 -1.33788 -0.0541487 0.645649 -0.0 -0.0 -0.0 0.0 -0.0 -1.34457 -14.577 13.5465 -21.9702 -0.26703 -3.3403 36.6388 28.8473 5.49925 3.59399 -0.0 -0.0 0.0 0.0 0.0 
2996.67669196 670.171 -1637.68770506 -36.9165551625 74.5124914378 33.5760899616 1.49251 0.241531 2.81747 1.49692 0.0618323 2.82712 1.50032 -0.46119 2.78996 1.48946 -0.0149636 2.82775 -1.21697 11.6137 -0.210663 -0.938506 21.0614 1.14669 -0.0 0.0 -0.0 -2.05451 23.1545 -0.149558 -12.5124 -19.5263 69.0959 0.787012 -21.2989 0.14799 -54.2108 -4.57283 4.88481 3.46639 8.34596 26.9661 -0.0 0.0 -0.0 12.1608 14.9935 -24.5659 -1.47602 3.2371 -66.7149 1.4946 36.5133 -0.493063 85.3279 4.46583 8.88114 1.78486 -29.2315 -21.5008 0.0 0.0 0.0 39.5489 14.7509 -6.39684 -25.3698 0.193389 3.85672 3.96981 1.42861 -0.579091 1.28952 -0.0 -0.0 -0.0 0.0 -0.0 -2.4599 -12.8993 14.4592 -24.3991 -0.217543 -3.70971 33.8633 26.3558 5.05147 3.41793 -0.0 -0.0 0.0 0.0 0.0 
